HIERARCHY
ROOT Hips
{
 OFFSET 0.000000 0.000000 0.000000
 CHANNELS 6 Xposition Yposition Zposition Yrotation Xrotation Zrotation
 JOINT Chest
 {
  OFFSET 0.000000 9.585900 0.002600
  CHANNELS 3 Yrotation Xrotation Zrotation
  JOINT Chest2
  {
   OFFSET 0.000000 9.601200 -0.005300
   CHANNELS 3 Yrotation Xrotation Zrotation
   JOINT Chest3
   {
    OFFSET 0.000000 9.561800 0.000000
    CHANNELS 3 Yrotation Xrotation Zrotation
    JOINT Chest4
    {
     OFFSET 0.000000 9.552100 0.000000
     CHANNELS 3 Yrotation Xrotation Zrotation
     JOINT Neck
     {
      OFFSET 0.000000 14.453000 0.000000
      CHANNELS 3 Yrotation Xrotation Zrotation
      JOINT Head
      {
       OFFSET 0.000000 8.936500 -0.011300
       CHANNELS 3 Yrotation Xrotation Zrotation
       End Site
       {
        OFFSET 0.000000 17.073600 -0.006000
       }
      }
     }
     JOINT RightCollar
     {
      OFFSET -2.921100 9.558500 0.000000
      CHANNELS 3 Yrotation Xrotation Zrotation
      JOINT RightShoulder
      {
       OFFSET -13.519700 0.000000 0.000000
       CHANNELS 3 Yrotation Xrotation Zrotation
       JOINT RightElbow
       {
        OFFSET 0.000000 -29.696600 0.000000
        CHANNELS 3 Yrotation Xrotation Zrotation
        JOINT RightWrist
        {
         OFFSET 0.000000 -24.004700 0.000000
         CHANNELS 3 Yrotation Xrotation Zrotation
         End Site
         {
          OFFSET 0.000000 -17.728500 0.000000
         }
        }
       }
      }
     }
     JOINT LeftCollar
     {
      OFFSET 2.921100 9.558500 0.000000
      CHANNELS 3 Yrotation Xrotation Zrotation
      JOINT LeftShoulder
      {
       OFFSET 13.519700 0.000000 0.000000
       CHANNELS 3 Yrotation Xrotation Zrotation
       JOINT LeftElbow
       {
        OFFSET 0.000000 -29.696600 0.000000
        CHANNELS 3 Yrotation Xrotation Zrotation
        JOINT LeftWrist
        {
         OFFSET 0.000000 -24.004700 0.000000
         CHANNELS 3 Yrotation Xrotation Zrotation
         End Site
         {
          OFFSET 0.000000 -17.728500 0.000000
         }
        }
       }
      }
     }
    }
   }
  }
 }
 JOINT RightHip
 {
  OFFSET -7.771700 -0.012900 -0.001300
  CHANNELS 3 Yrotation Xrotation Zrotation
  JOINT RightKnee
  {
   OFFSET 0.000000 -40.869800 0.001200
   CHANNELS 3 Yrotation Xrotation Zrotation
   JOINT RightAnkle
   {
    OFFSET 0.000000 -39.717900 0.002100
    CHANNELS 3 Yrotation Xrotation Zrotation
    JOINT RightToe
    {
     OFFSET 0.000000 -4.965400 11.033500
     CHANNELS 3 Yrotation Xrotation Zrotation
     End Site
     {
      OFFSET 0.000000 -1.423100 5.872300
     }
    }
   }
  }
 }
 JOINT LeftHip
 {
  OFFSET 7.771700 -0.012900 -0.001300
  CHANNELS 3 Yrotation Xrotation Zrotation
  JOINT LeftKnee
  {
   OFFSET 0.000000 -40.869800 0.001200
   CHANNELS 3 Yrotation Xrotation Zrotation
   JOINT LeftAnkle
   {
    OFFSET 0.000000 -39.717900 0.002100
    CHANNELS 3 Yrotation Xrotation Zrotation
    JOINT LeftToe
    {
     OFFSET 0.000000 -4.965400 11.033500
     CHANNELS 3 Yrotation Xrotation Zrotation
     End Site
     {
      OFFSET 0.000000 -1.423100 5.872300
     }
    }
   }
  }
 }
}
MOTION
Frames: 16
Frame Time: 0.008333
-29.443206 51.995070 26.570639 179.948414 -31.449625 0.325917 0.909188 27.129293 -3.049475 0.260902 4.713058 -0.446201 0.393119 7.477286 -0.688523 0.966596 22.085824 -1.991181 -4.416781 17.513184 -7.694877 -3.016533 -6.979104 -7.325940 14.479514 13.925573 14.705797 28.281050 -16.274253 -46.553331 -99.895413 -49.984171 37.430382 -10.651578 -4.723205 -21.446203 -12.580141 14.684230 -20.046421 -27.495465 -12.313444 49.179873 122.710318 -42.907654 -63.320739 24.069923 -11.124482 6.131836 -8.258785 -51.124596 -0.411607 -59.272669 81.113830 -67.939993 -4.477066 -6.317323 6.307056 0.318385 -0.531441 0.158654 3.791542 -49.068318 -3.769522 33.228433 83.545302 37.905698 -1.877364 -9.582800 -1.089895 0.104600 0.518258 0.048564
-29.447193 51.991719 26.572661 179.960528 -31.508527 0.323887 0.918552 27.131944 -3.055028 0.266776 4.700243 -0.450536 0.393758 7.493657 -0.687613 0.962323 22.088966 -2.000668 -4.424037 17.539094 -7.663930 -3.080334 -7.029280 -7.264271 14.442380 13.877329 14.737125 28.147516 -16.155105 -46.236382 -99.762792 -50.126968 37.514174 -10.692141 -4.710167 -21.196332 -12.539674 14.721226 -20.005457 -27.445566 -12.109696 48.968888 122.865671 -43.046374 -63.652115 24.021885 -11.098784 6.134462 -8.236947 -51.063164 -0.436863 -59.297224 81.113633 -67.962748 -4.483309 -6.378460 6.297783 0.310953 -0.478140 0.175616 3.783573 -49.009481 -3.773062 33.216938 83.540492 37.891319 -1.883697 -9.586325 -1.091515 0.107949 0.526182 0.053813
-29.449210 51.991475 26.572093 179.976771 -31.595937 0.306478 0.926508 27.163433 -3.047119 0.267340 4.701121 -0.451195 0.406911 7.441071 -0.705661 0.965701 22.105509 -2.002776 -4.445044 17.575239 -7.620221 -3.125411 -7.065792 -7.205724 14.412481 13.861263 14.789488 28.005793 -16.025321 -45.922720 -99.626365 -50.282662 37.620701 -10.724837 -4.678036 -20.901251 -12.502053 14.796531 -19.961350 -27.396729 -11.906300 48.766593 123.029360 -43.175783 -63.998918 23.994500 -11.092212 6.092122 -8.211466 -50.977888 -0.453757 -59.391517 81.109175 -68.046166 -4.504173 -6.391563 6.300246 0.327426 -0.483502 0.178864 3.752651 -48.921297 -3.749558 33.196519 83.537219 37.866435 -1.889932 -9.589551 -1.088790 0.111852 0.530923 0.055165
-29.455662 51.989490 26.576648 -179.992380 -31.657514 0.306328 0.906429 27.168973 -3.066705 0.263658 4.730114 -0.447383 0.411746 7.414854 -0.710643 0.970203 22.093901 -2.008267 -4.484034 17.519339 -7.577548 -3.130502 -7.043560 -7.182979 14.379799 13.822261 14.814471 27.877165 -15.873712 -45.617416 -99.488601 -50.461730 37.727834 -10.749215 -4.632031 -20.552485 -12.465636 14.837682 -19.933759 -27.349675 -11.704452 48.573704 123.202537 -43.293566 -64.361204 23.983736 -11.095177 6.018217 -8.193448 -50.919688 -0.492050 -59.403551 81.114773 -68.075963 -4.502069 -6.422836 6.330379 0.308855 -0.499384 0.158885 3.743475 -48.859126 -3.767422 33.122522 83.523648 37.782435 -1.900928 -9.574682 -1.077559 0.117033 0.530800 0.056063
-29.459503 51.986999 26.584047 -179.987559 -31.708341 0.302483 0.912846 27.177073 -3.065288 0.268175 4.705075 -0.451104 0.411655 7.431229 -0.707853 0.975262 22.096751 -2.006932 -4.514528 17.469847 -7.542953 -3.155509 -7.062422 -7.150085 14.343525 13.768046 14.827565 27.777376 -15.695590 -45.323365 -99.360674 -50.669186 37.830933 -10.762863 -4.572681 -20.159057 -12.429181 14.857434 -19.911056 -27.309711 -11.505711 48.391858 123.385674 -43.402664 -64.736639 23.983670 -11.093542 5.927835 -8.185420 -50.870020 -0.499724 -59.399099 81.113741 -68.083276 -4.484527 -6.466307 6.347770 0.281815 -0.481759 0.146953 3.738031 -48.811268 -3.761029 33.086298 83.517520 37.742400 -1.914196 -9.567946 -1.074022 0.127289 0.532952 0.059905
-29.463550 51.984691 26.592979 -179.990753 -31.757036 0.302047 0.927344 27.172206 -3.062564 0.271541 4.693125 -0.452527 0.411619 7.448358 -0.705464 0.980786 22.100434 -2.004348 -4.530525 17.473510 -7.525276 -3.209909 -7.154300 -7.090435 14.305959 13.709312 14.837181 27.713989 -15.491180 -45.041591 -99.245570 -50.908229 37.930197 -10.766693 -4.499738 -19.749439 -12.390080 14.868344 -19.890033 -27.278010 -11.309546 48.221432 123.579874 -43.510996 -65.124282 23.986947 -11.070816 5.838823 -8.151672 -50.820706 -0.517775 -59.419346 81.106142 -68.094670 -4.491748 -6.526350 6.347452 0.279115 -0.432577 0.151460 3.737207 -48.766422 -3.753051 33.065267 83.510723 37.716707 -1.928528 -9.557679 -1.070785 0.137143 0.531878 0.063896
-29.467702 51.986905 26.596327 -179.980873 -31.852979 0.292828 0.933194 27.202166 -3.055958 0.271453 4.708214 -0.450807 0.413299 7.451602 -0.704652 0.985981 22.104362 -2.000756 -4.564154 17.400049 -7.488683 -3.237663 -7.192480 -7.059064 14.268186 13.649256 14.843400 27.686342 -15.264276 -44.775542 -99.135866 -51.175093 38.023827 -10.762306 -4.420102 -19.353096 -12.360746 14.882671 -19.878879 -27.245887 -11.127658 48.070596 123.777131 -43.627614 -65.520238 23.985317 -11.017839 5.766122 -8.121786 -50.725348 -0.542333 -59.458938 81.100168 -68.126880 -4.506056 -6.544597 6.349562 0.284025 -0.426751 0.156417 3.717129 -48.669900 -3.737643 33.058439 83.498252 37.704921 -1.941970 -9.539778 -1.067495 0.143429 0.521838 0.066329
-29.473614 51.983842 26.609742 -179.993318 -31.885192 0.302913 0.949173 27.181475 -3.057121 0.272678 4.710079 -0.450160 0.412670 7.478915 -0.704329 0.991140 22.095584 -1.997811 -4.596902 17.304813 -7.451368 -3.267442 -7.234103 -7.029056 14.232348 13.578785 14.842579 27.682385 -15.021181 -44.523088 -99.028182 -51.466359 38.121694 -10.746008 -4.337972 -18.983056 -12.354659 14.904374 -19.879827 -27.208341 -10.976332 47.945046 123.968954 -43.762741 -65.917359 23.971101 -10.934467 5.720325 -8.074209 -50.696348 -0.562746 -59.389746 81.090149 -68.066890 -4.489463 -6.560684 6.373844 0.254695 -0.454816 0.139712 3.729283 -48.639176 -3.740873 32.986362 83.485614 37.625472 -1.947945 -9.525809 -1.060343 0.147656 0.524502 0.067326
-29.478606 51.982999 26.621063 -179.986212 -31.938646 0.293799 0.950440 27.182283 -3.046820 0.273985 4.724007 -0.450441 0.412899 7.494216 -0.704098 0.991676 22.108324 -1.996635 -4.621129 17.205792 -7.417836 -3.309266 -7.302189 -6.989820 14.199196 13.487410 14.833498 27.692713 -14.768670 -44.280268 -98.922287 -51.786222 38.234402 -10.715073 -4.247645 -18.642357 -12.307247 14.870428 -19.857419 -27.195859 -10.797786 47.799110 124.159025 -43.919390 -66.316420 23.943475 -10.822750 5.699989 -8.056682 -50.645958 -0.573914 -59.392774 81.082702 -68.064159 -4.492534 -6.579984 6.371081 0.255714 -0.442063 0.145306 3.711105 -48.590068 -3.729196 32.958787 83.472861 37.591832 -1.953502 -9.506613 -1.055014 0.150816 0.521111 0.067374
-29.483924 51.983664 26.631453 -179.979130 -32.004522 0.283082 0.950489 27.208828 -3.034707 0.274737 4.750180 -0.451987 0.418002 7.455992 -0.702285 1.000748 22.109678 -1.990550 -4.657023 17.141704 -7.386667 -3.352374 -7.372199 -6.952968 14.161494 13.436286 14.831405 27.710590 -14.514080 -44.046287 -98.813254 -52.136516 38.357757 -10.670857 -4.144048 -18.328789 -12.270578 14.863448 -19.835278 -27.183005 -10.617193 47.651693 124.353212 -44.089273 -66.726829 23.908909 -10.696812 5.689429 -8.024262 -50.584281 -0.592034 -59.421610 81.070777 -68.078921 -4.507977 -6.579176 6.369166 0.266584 -0.446372 0.151770 3.686245 -48.527434 -3.715027 32.966320 83.455084 37.591562 -1.951863 -9.483226 -1.048856 0.146019 0.513755 0.064699
-29.486664 51.980557 26.649359 179.965881 -32.022485 0.286358 1.010991 27.213572 -3.004085 0.281177 4.673257 -0.441853 0.413172 7.493883 -0.706861 1.006224 22.109700 -1.985906 -4.688843 17.077027 -7.360415 -3.396857 -7.444490 -6.920187 14.133385 13.391721 14.823774 27.732283 -14.260943 -43.822366 -98.700721 -52.513769 38.486460 -10.614686 -4.027585 -18.030627 -12.184368 14.793195 -19.789876 -27.180075 -10.383549 47.463109 124.553505 -44.260984 -67.158402 23.872182 -10.578991 5.671456 -7.993858 -50.565540 -0.558185 -59.228085 81.065286 -67.895263 -4.476261 -6.593735 6.393332 0.221629 -0.430509 0.127252 3.696162 -48.511972 -3.676037 32.896246 83.438637 37.514049 -1.928826 -9.444605 -1.038135 0.125846 0.494606 0.054724
-29.497842 51.982393 26.660930 179.999205 -32.090530 0.290042 0.985932 27.231290 -3.012813 0.277715 4.674353 -0.440389 0.416415 7.491906 -0.704651 1.007114 22.109493 -1.978454 -4.727231 17.013069 -7.340804 -3.441689 -7.519076 -6.891242 14.099267 13.353797 14.816643 27.760210 -14.009030 -43.609878 -98.588132 -52.916527 38.618072 -10.551355 -3.901510 -17.731580 -12.155353 14.780749 -19.782780 -27.155258 -10.214202 47.332059 124.765359 -44.427665 -67.616027 23.839509 -10.480330 5.636511 -7.979502 -50.502449 -0.610696 -59.171668 81.062158 -67.839592 -4.497727 -6.579347 6.366897 0.255078 -0.459146 0.151998 3.679078 -48.442833 -3.705728 32.823140 83.419475 37.435773 -1.948935 -9.441735 -1.042985 0.150629 0.511669 0.065245
-29.508476 51.984025 26.674370 -179.972128 -32.149826 0.290149 0.969357 27.205148 -3.006828 0.268215 4.748406 -0.452908 0.420571 7.454900 -0.695936 1.023494 22.065554 -1.953871 -4.779128 16.990943 -7.342633 -3.485309 -7.595844 -6.865444 14.052980 13.361670 14.811566 27.795354 -13.757524 -43.405116 -98.481953 -53.342231 38.754628 -10.488508 -3.771742 -17.422279 -12.144582 14.808096 -19.801363 -27.125831 -10.056029 47.212370 124.997494 -44.587958 -68.098924 23.820917 -10.402893 5.587081 -7.974277 -50.446672 -0.649868 -59.111610 81.058540 -67.782104 -4.508086 -6.585949 6.358627 0.266226 -0.489855 0.149015 3.657212 -48.380806 -3.724424 32.694534 83.391144 37.293659 -1.943822 -9.407367 -1.034196 0.147822 0.506672 0.064639
-29.514628 51.985397 26.689651 -179.988532 -32.199754 0.285396 0.993712 27.242390 -2.986613 0.275373 4.711795 -0.444253 0.419912 7.456974 -0.694109 1.024547 22.072080 -1.946143 -4.806630 16.975122 -7.344000 -3.546804 -7.725846 -6.821833 14.011039 13.316013 14.809800 27.838789 -13.507607 -43.204354 -98.393350 -53.786970 38.908265 -10.428036 -3.643708 -17.103497 -12.120002 14.790932 -19.795200 -27.117845 -9.954938 47.132843 125.176189 -44.750996 -68.532478 23.817330 -10.344462 5.535233 -7.959540 -50.398319 -0.648469 -58.989522 81.053164 -67.657794 -4.504707 -6.573756 6.357135 0.262796 -0.491016 0.146494 3.640452 -48.332475 -3.699623 32.688855 83.374171 37.278703 -1.943200 -9.394561 -1.030623 0.145889 0.508030 0.063866
-29.522669 51.988647 26.703468 -179.998391 -32.263421 0.287334 1.010810 27.266073 -2.968899 0.275831 4.711955 -0.442854 0.425283 7.418272 -0.680769 1.021708 22.111457 -1.948834 -4.848553 16.877209 -7.325457 -3.579676 -7.776758 -6.812575 13.964807 13.269071 14.811868 27.886542 -13.264951 -43.007070 -98.324666 -54.247358 39.083170 -10.370935 -3.520784 -16.770984 -12.095462 14.774012 -19.785160 -27.092443 -9.787796 47.011344 125.489590 -44.915173 -69.098924 23.818512 -10.292045 5.484717 -7.934694 -50.338659 -0.668746 -58.906920 81.043652 -67.573668 -4.493446 -6.555028 6.358785 0.260580 -0.501386 0.143336 3.628153 -48.267955 -3.687925 32.611198 83.355156 37.191926 -1.944816 -9.365612 -1.028943 0.148973 0.498149 0.066129
-29.534276 51.987561 26.725665 -179.967104 -32.270770 0.288542 0.978015 27.210155 -2.975015 0.276439 4.737002 -0.446958 0.428470 7.418923 -0.677467 1.025070 22.119504 -1.944491 -4.883982 16.770120 -7.305224 -3.611257 -7.826868 -6.803946 13.923313 13.209186 14.816853 27.926288 -13.034107 -42.810107 -98.275946 -54.717052 39.281141 -10.320931 -3.405673 -16.422425 -12.067971 14.747757 -19.768424 -27.069745 -9.628272 46.892909 125.818787 -45.096049 -69.681321 23.817481 -10.229665 5.426939 -7.933572 -50.339153 -0.713246 -58.818204 81.034145 -67.477599 -4.491316 -6.556115 6.354324 0.256094 -0.516836 0.135523 3.611938 -48.260780 -3.713382 32.331964 83.325626 36.902101 -1.947205 -9.321746 -1.019554 0.161447 0.497163 0.066320
